<?xml version="1.0" encoding="iso-8859-1"?>
<!-- Generator: Adobe Illustrator 18.1.1, SVG Export Plug-In . SVG Version: 6.00 Build 0)  -->
<svg xmlns="http://www.w3.org/2000/svg" xmlns:xlink="http://www.w3.org/1999/xlink" version="1.1" id="Capa_1" x="0px" y="0px" viewBox="0 0 50.601 50.601" style="enable-background:new 0 0 50.601 50.601;" xml:space="preserve" width="512px" height="512px">
<g>
	<path d="M32.348,49.49c-0.683,0-1.35-0.28-1.83-0.797l-5.217-5.607l-5.218,5.607   c-0.662,0.712-1.677,0.974-2.603,0.675c-0.925-0.301-1.591-1.111-1.709-2.076l-0.923-7.601l-7.514,1.468   c-0.957,0.185-1.931-0.196-2.501-0.983c-0.572-0.786-0.636-1.833-0.164-2.683l3.715-6.694l-6.94-3.232   C0.563,27.156,0,26.272,0,25.3s0.563-1.856,1.445-2.266l6.939-3.232l-3.715-6.695c-0.472-0.85-0.408-1.896,0.164-2.683   c0.572-0.787,1.55-1.17,2.501-0.983l7.514,1.469l0.924-7.601c0.118-0.965,0.784-1.775,1.709-2.076   c0.925-0.301,1.94-0.038,2.603,0.675L25.3,7.515l5.217-5.607c0.662-0.713,1.679-0.975,2.603-0.675   c0.926,0.3,1.592,1.11,1.709,2.076l0.924,7.601l7.515-1.468c0.956-0.185,1.931,0.197,2.502,0.984   c0.571,0.786,0.635,1.833,0.163,2.683l-3.715,6.694l6.939,3.231c0.881,0.41,1.444,1.294,1.444,2.266   c0,0.972-0.563,1.855-1.444,2.267l-6.94,3.232l3.575,6.443c0.298,0.411,0.473,0.917,0.473,1.464c0,1.38-1.118,2.499-2.498,2.5   c-0.15,0-0.333-0.014-0.501-0.047l-7.513-1.468l-0.924,7.601c-0.117,0.965-0.783,1.775-1.709,2.076   C32.867,49.45,32.607,49.49,32.348,49.49z M17.006,34.223c0.524,0,1.039,0.165,1.47,0.478c0.562,0.408,0.928,1.032,1.012,1.721   l0.599,4.929l3.384-3.637c0.473-0.508,1.136-0.797,1.83-0.797l0,0c0.694,0,1.357,0.289,1.83,0.797l3.384,3.637l0.599-4.929   c0.083-0.688,0.45-1.312,1.012-1.721c0.562-0.407,1.269-0.564,1.949-0.431l4.88,0.953l-2.411-4.345   c-0.336-0.606-0.405-1.326-0.191-1.985c0.215-0.66,0.693-1.201,1.322-1.494l4.506-2.099l-4.506-2.098   c-0.629-0.292-1.107-0.833-1.322-1.494c-0.214-0.66-0.145-1.379,0.192-1.986l2.41-4.344l-4.88,0.953   c-0.683,0.136-1.388-0.024-1.949-0.431c-0.562-0.408-0.929-1.032-1.012-1.721l-0.599-4.928l-3.384,3.636   c-0.945,1.018-2.714,1.018-3.661,0L20.087,9.25l-0.599,4.929c-0.084,0.689-0.451,1.312-1.012,1.721   c-0.562,0.409-1.268,0.565-1.949,0.431l-4.879-0.954l2.411,4.345c0.336,0.606,0.406,1.326,0.191,1.986   c-0.214,0.66-0.693,1.201-1.322,1.493l-4.506,2.098l4.506,2.099c0.629,0.293,1.107,0.834,1.322,1.494   c0.214,0.659,0.145,1.379-0.191,1.985l-2.411,4.345l4.879-0.953C16.686,34.238,16.846,34.223,17.006,34.223z" fill="#D80027"/>
	<path d="M25.301,33.662c-4.611,0-8.363-3.751-8.363-8.362s3.751-8.363,8.363-8.363s8.362,3.751,8.362,8.363   S29.912,33.662,25.301,33.662z M25.301,21.937c-1.854,0-3.363,1.508-3.363,3.363c0,1.854,1.508,3.362,3.363,3.362   c1.854,0,3.362-1.509,3.362-3.362C28.663,23.446,27.155,21.937,25.301,21.937z" fill="#D80027"/>
</g>
<g>
</g>
<g>
</g>
<g>
</g>
<g>
</g>
<g>
</g>
<g>
</g>
<g>
</g>
<g>
</g>
<g>
</g>
<g>
</g>
<g>
</g>
<g>
</g>
<g>
</g>
<g>
</g>
<g>
</g>
</svg>
