<?xml version="1.0" encoding="iso-8859-1"?>
<!-- Generator: Adobe Illustrator 19.1.0, SVG Export Plug-In . SVG Version: 6.00 Build 0)  -->
<svg xmlns="http://www.w3.org/2000/svg" xmlns:xlink="http://www.w3.org/1999/xlink" version="1.1" id="Capa_1" x="0px" y="0px" viewBox="0 0 490.3 490.3" style="enable-background:new 0 0 490.3 490.3;" xml:space="preserve" width="512px" height="512px">
<g>
	<g>
		<path d="M454.55,205.5h-7.6c-11.4-29.6-30.8-56.5-56.6-78.3c0,0,0,0,0-0.1c-3.8-13.4-1-27.8,8.4-42.8c5.2-8.3,5.2-18.6-0.1-26.8    c-5.3-8.2-14.6-12.6-24.3-11.4c-36.1,4.5-57.6,20.9-70.2,36.1c-11.9-3.3-24.2-5.7-36.6-7.2c-6.6-0.8-12.6,3.9-13.3,10.5    c-0.8,6.6,3.9,12.6,10.5,13.3c13.8,1.6,27.4,4.6,40.5,8.7c5.1,1.6,10.6-0.3,13.6-4.7c8.6-12.7,25.7-28.8,58.6-32.9    c0.3,0,0.7-0.1,1.1,0.5s0.1,1,0,1.2c-13,20.7-16.8,42.1-11.1,62.1c0,0.1,0,0.2,0,0.3c0.1,3.5,1.7,6.8,4.5,9    c26.4,21.3,45.5,48.4,55.3,78.2c1.6,4.9,6.2,8.3,11.4,8.3c0.1,0,0.1,0,0.2,0h15.9c5.5,0,9.9,4.4,9.9,9.9v54c0,5.5-4.4,9.9-9.9,9.9    h-15.2c-5.3,0-9.9,3.4-11.5,8.5c-8.6,28.2-25.7,54.1-49.3,75.1c-0.1,0.1-0.1,0.1-0.2,0.2l-0.1,0.1c-0.9,0.8-1.8,1.5-2.7,2.3    c-0.1,0.1-0.2,0.2-0.3,0.2c-25.6,23.2-28.2,50.5-28.4,58.3c0,0.1,0,0.2,0,0.3V466h-72.1v-16.9c0-3.4-1.4-6.6-4-8.9s-5.9-3.4-9.3-3    c-8,0.8-16,1.3-24,1.3c-10.2,0-20.5-0.7-30.5-2c-3.4-0.5-6.9,0.6-9.5,2.9s-4.1,5.6-4.1,9v17.7h-72.1v-5.3c0-0.2,0-0.4,0-0.5    c-0.6-13-4.7-46.2-30.6-72.8c-12.3-12.7-23.3-29.4-32.7-49.7c-0.1-0.2-0.1-0.3-0.2-0.4c-5.6-10.8-9.8-22.2-12.7-33.9    c0-0.1-0.1-0.2-0.1-0.3c0-0.1,0-0.1,0-0.2c-2.8-11.5-4.2-23.3-4.2-35.1c0-8.3,0.7-16.6,2.1-24.7c1.1-6.5-3.3-12.7-9.9-13.8    c-6.5-1.1-12.7,3.3-13.8,9.9c-1.6,9.4-2.4,19.1-2.4,28.7c0,13.5,1.6,27.1,4.7,40.3c0,0.2,0.1,0.5,0.2,0.7c0,0,0.1,0.2,0.1,0.6    c3.3,13.3,8.2,26.4,14.5,38.7c10.5,22.7,23,41.5,37.2,56.1c19.9,20.5,23.3,46.4,23.8,56.9v5.1c0,0.3,0,0.6,0,1c0,0.5,0,1,0.1,1.4    c1.2,12.1,11.5,21.4,23.7,21.4h72.4c13.2,0,23.9-10.7,23.9-23.9v-4.5c11.1,0.9,22.2,1,33.3,0.5v4.1c0,13.2,10.7,23.9,23.9,23.9    h72.4c13.2,0,23.9-10.7,23.9-23.9v-17.7c0.1-4.1,1.7-23.9,20.4-40.9c0.9-0.8,1.8-1.6,2.7-2.4c0.1-0.1,0.1-0.1,0.2-0.2    c0.2-0.2,0.5-0.4,0.7-0.6c24.3-21.7,42.5-48.3,53-77.2h6.5c18.7,0,33.9-15.2,33.9-33.9v-54    C488.45,220.7,473.25,205.5,454.55,205.5z" fill="#FFDA44"/>
		<path d="M119.35,235c64.8,0,117.5-52.7,117.5-117.5S184.15,0,119.35,0S1.85,52.7,1.85,117.5S54.55,235,119.35,235z M119.35,24    c51.6,0,93.5,41.9,93.5,93.5s-41.9,93.5-93.5,93.5s-93.5-41.9-93.5-93.5S67.75,24,119.35,24z" fill="#FFDA44"/>
	</g>
</g>
<g>
</g>
<g>
</g>
<g>
</g>
<g>
</g>
<g>
</g>
<g>
</g>
<g>
</g>
<g>
</g>
<g>
</g>
<g>
</g>
<g>
</g>
<g>
</g>
<g>
</g>
<g>
</g>
<g>
</g>
</svg>
